<svg width="79" height="34" viewBox="0 0 79 34" fill="none" xmlns="http://www.w3.org/2000/svg">
<rect width="78.6696" height="34" rx="10" fill="black"/>
<g clip-path="url(#clip0_15_164)">
<path d="M9.66814 27.9999C11.6921 27.9999 13.3348 26.3573 13.3348 24.3333V20.6667H9.66814C7.64413 20.6667 6.00146 22.3093 6.00146 24.3333C6.00146 26.3573 7.64413 27.9999 9.66814 27.9999Z" fill="#0ACF83"/>
<path d="M6.00146 17C6.00146 14.976 7.64413 13.3333 9.66814 13.3333H13.3348V20.6666H9.66814C7.64413 20.6666 6.00146 19.024 6.00146 17Z" fill="#A259FF"/>
<path d="M6.00146 9.66666C6.00146 7.64266 7.64413 6 9.66814 6H13.3348V13.3333H9.66814C7.64413 13.3333 6.00146 11.6907 6.00146 9.66666Z" fill="#F24E1E"/>
<path d="M13.3348 6H17.0015C19.0255 6 20.6682 7.64266 20.6682 9.66666C20.6682 11.6907 19.0255 13.3333 17.0015 13.3333H13.3348V6Z" fill="#FF7262"/>
<path d="M20.6682 17C20.6682 19.024 19.0255 20.6666 17.0015 20.6666C14.9775 20.6666 13.3348 19.024 13.3348 17C13.3348 14.976 14.9775 13.3333 17.0015 13.3333C19.0255 13.3333 20.6682 14.976 20.6682 17Z" fill="#1ABCFE"/>
</g>
<path d="M29.0413 22H26.5213V12.2H34.2913V14.16H29.0413V16.47H33.1713V18.43H29.0413V22ZM39.8913 22H34.8513V20.04H36.1113V14.16H34.8513V12.2H39.8913V14.16H38.6313V20.04H39.8913V22ZM49.5502 21.79C47.3662 22.0233 45.3596 22.14 43.5302 22.14C42.6156 22.14 41.9436 21.9253 41.5142 21.496C41.0849 21.0667 40.8702 20.3947 40.8702 19.48V15C40.8702 14.02 41.0896 13.3107 41.5282 12.872C41.9762 12.424 42.6902 12.2 43.6702 12.2H48.7102V14.16H44.2302C43.6702 14.16 43.3902 14.44 43.3902 15V19.48C43.3902 19.6947 43.4509 19.8673 43.5722 19.998C43.7029 20.1193 43.8756 20.18 44.0902 20.18C45.1636 20.18 46.1436 20.1567 47.0302 20.11V18.08H45.2102V16.4H49.5502V21.79ZM59.353 16.54L57.393 20.04H55.433L53.473 16.54V22H50.953V12.2H53.613L56.413 17.38L59.213 12.2H61.873V22H59.353V16.54ZM65.3084 22H62.5784L66.2884 12.2H69.0884L72.7984 22H70.0684L69.4384 20.25H65.9384L65.3084 22ZM66.5684 18.43H68.8084L67.6884 15.14L66.5684 18.43Z" fill="white"/>
<defs>
<clipPath id="clip0_15_164">
<rect width="14.6696" height="22" fill="white" transform="translate(6 6)"/>
</clipPath>
</defs>
</svg>
