<svg width="132" height="34" viewBox="0 0 132 34" fill="none" xmlns="http://www.w3.org/2000/svg">
<rect width="131.422" height="34" rx="10" fill="black"/>
<path d="M31.327 19.97C33.8843 20.11 35.6156 20.18 36.521 20.18C36.7356 20.18 36.9036 20.1193 37.025 19.998C37.1556 19.8673 37.221 19.6947 37.221 19.48V18.22H34.001C33.021 18.22 32.307 18.0007 31.859 17.562C31.4203 17.114 31.201 16.4 31.201 15.42V15C31.201 14.02 31.4203 13.3107 31.859 12.872C32.307 12.424 33.021 12.2 34.001 12.2H38.915V14.16H34.561C34.001 14.16 33.721 14.44 33.721 15V15.28C33.721 15.84 34.001 16.12 34.561 16.12H37.081C37.9956 16.12 38.6676 16.3347 39.097 16.764C39.5263 17.1933 39.741 17.8653 39.741 18.78V19.48C39.741 20.3947 39.5263 21.0667 39.097 21.496C38.6676 21.9253 37.9956 22.14 37.081 22.14C36.605 22.14 36.101 22.1307 35.569 22.112L34.281 22.056C33.329 22.0093 32.3443 21.944 31.327 21.86V19.97ZM47.2999 14.86C47.2999 14.3 47.0199 14.02 46.4599 14.02H44.0799C43.5199 14.02 43.2399 14.3 43.2399 14.86V19.34C43.2399 19.9 43.5199 20.18 44.0799 20.18H46.4599C47.0199 20.18 47.2999 19.9 47.2999 19.34V14.86ZM49.8199 19.34C49.8199 20.32 49.5959 21.034 49.1479 21.482C48.7092 21.9207 47.9999 22.14 47.0199 22.14H43.5199C42.5399 22.14 41.8259 21.9207 41.3779 21.482C40.9392 21.034 40.7199 20.32 40.7199 19.34V14.86C40.7199 13.88 40.9392 13.1707 41.3779 12.732C41.8259 12.284 42.5399 12.06 43.5199 12.06H47.0199C47.9999 12.06 48.7092 12.284 49.1479 12.732C49.5959 13.1707 49.8199 13.88 49.8199 14.86V19.34ZM57.5264 12.2H60.0464V19.34C60.0464 20.32 59.8224 21.034 59.3744 21.482C58.9358 21.9207 58.2264 22.14 57.2464 22.14H54.0264C53.0464 22.14 52.3324 21.9207 51.8844 21.482C51.4458 21.034 51.2264 20.32 51.2264 19.34V12.2H53.7464V19.34C53.7464 19.9 54.0264 20.18 54.5864 20.18H56.6864C57.2464 20.18 57.5264 19.9 57.5264 19.34V12.2ZM61.7264 12.2H67.6064C68.5864 12.2 69.2958 12.424 69.7344 12.872C70.1824 13.3107 70.4064 14.02 70.4064 15V16.26C70.4064 17.0347 70.2758 17.6367 70.0144 18.066C69.7624 18.4953 69.3564 18.78 68.7964 18.92L70.5464 22H67.8164L66.2064 19.06H64.2464V22H61.7264V12.2ZM67.8864 15C67.8864 14.44 67.6064 14.16 67.0464 14.16H64.2464V17.1H67.0464C67.6064 17.1 67.8864 16.82 67.8864 16.26V15ZM79.3626 21.86C77.2813 22.0467 75.5546 22.14 74.1826 22.14C73.2679 22.14 72.5959 21.9253 72.1666 21.496C71.7373 21.0667 71.5226 20.3947 71.5226 19.48V15C71.5226 14.02 71.7419 13.3107 72.1806 12.872C72.6286 12.424 73.3426 12.2 74.3226 12.2H79.3626V14.16H74.8826C74.3226 14.16 74.0426 14.44 74.0426 15V19.48C74.0426 19.6947 74.1033 19.8673 74.2246 19.998C74.3553 20.1193 74.5186 20.18 74.7146 20.18C74.9106 20.18 75.1253 20.18 75.3586 20.18C75.5919 20.1707 75.8346 20.1613 76.0866 20.152C76.3386 20.1427 76.5906 20.1333 76.8426 20.124C77.1039 20.1147 77.4353 20.096 77.8366 20.068C78.2473 20.04 78.7559 20.0073 79.3626 19.97V21.86ZM88.2543 22H80.4843V12.2H88.2543V14.16H83.0043V16.05H87.1343V18.01H83.0043V20.04H88.2543V22ZM94.131 22H91.611V14.16H88.671V12.2H97.071V14.16H94.131V22ZM98.0526 12.2H103.933C104.913 12.2 105.622 12.424 106.061 12.872C106.509 13.3107 106.733 14.02 106.733 15V16.26C106.733 17.0347 106.602 17.6367 106.341 18.066C106.089 18.4953 105.683 18.78 105.123 18.92L106.873 22H104.143L102.533 19.06H100.573V22H98.0526V12.2ZM104.213 15C104.213 14.44 103.933 14.16 103.373 14.16H100.573V17.1H103.373C103.933 17.1 104.213 16.82 104.213 16.26V15ZM115.899 22H108.129V12.2H115.899V14.16H110.649V16.05H114.779V18.01H110.649V20.04H115.899V22ZM124.786 22H117.016V12.2H124.786V14.16H119.536V16.05H123.666V18.01H119.536V20.04H124.786V22Z" fill="white"/>
<g clip-path="url(#clip0_22_278)">
<path d="M24.4319 14.7227C24.4319 12.4093 23.5129 10.1906 21.877 8.55481C20.2412 6.91899 18.0226 6 15.7092 6C13.6307 5.99633 11.6193 6.73523 10.0374 8.08352C8.45562 9.43181 7.40744 11.3008 7.08183 13.3536C6.75622 15.4064 7.17461 17.508 8.26157 19.2796C9.34853 21.0512 11.0326 22.3763 13.0102 23.016V27.3865C13.0102 27.5492 13.0748 27.7052 13.1898 27.8203C13.3049 27.9353 13.4609 27.9999 13.6236 27.9999H17.7641C17.9268 27.9999 18.0828 27.9353 18.1978 27.8203C18.3129 27.7052 18.3775 27.5492 18.3775 27.3865V23.0221C20.1364 22.4579 21.671 21.35 22.7601 19.858C23.8492 18.366 24.4367 16.5668 24.438 14.7196L24.4319 14.7227ZM15.7092 17.667C14.9275 17.667 14.1778 17.3565 13.625 16.8038C13.0723 16.251 12.7617 15.5013 12.7617 14.7196C12.7617 13.9379 13.0723 13.1882 13.625 12.6355C14.1778 12.0827 14.9275 11.7722 15.7092 11.7722C16.4913 11.7722 17.2414 12.0829 17.7944 12.6359C18.3474 13.189 18.6581 13.939 18.6581 14.7211C18.6581 15.5033 18.3474 16.2533 17.7944 16.8064C17.2414 17.3594 16.4913 17.6701 15.7092 17.6701V17.667Z" fill="#2684FF"/>
<path d="M15.7092 6V11.7753C16.4913 11.7753 17.2414 12.086 17.7944 12.639C18.3475 13.192 18.6582 13.9421 18.6582 14.7242C18.6582 15.5064 18.3475 16.2564 17.7944 16.8095C17.2414 17.3625 16.4913 17.6732 15.7092 17.6732C16.425 17.6732 17.1115 17.9576 17.6177 18.4637C18.1238 18.9699 18.4082 19.6564 18.4082 20.3722V23.0221C20.3868 22.3823 22.0717 21.0566 23.1591 19.2841C24.2465 17.5116 24.665 15.4089 24.3389 13.3552C24.0129 11.3014 22.9639 9.43169 21.3811 8.08308C19.7982 6.73447 17.7856 5.99572 15.7061 6H15.7092Z" fill="url(#paint0_linear_22_278)"/>
</g>
<defs>
<linearGradient id="paint0_linear_22_278" x1="20.0705" y1="21.4426" x2="20.0705" y2="12.177" gradientUnits="userSpaceOnUse">
<stop offset="0.18" stop-color="#0052CC"/>
<stop offset="1" stop-color="#2684FF"/>
</linearGradient>
<clipPath id="clip0_22_278">
<rect width="19.4216" height="22" fill="white" transform="translate(6 6)"/>
</clipPath>
</defs>
</svg>
