<svg width="117" height="34" viewBox="0 0 117 34" fill="none" xmlns="http://www.w3.org/2000/svg">
<rect width="117" height="34" rx="10" fill="black"/>
<path d="M38.8539 21H36.3339V13.16H33.3939V11.2H41.7939V13.16H38.8539V21ZM50.5455 21H42.7755V11.2H50.5455V13.16H45.2955V15.05H49.4255V17.01H45.2955V19.04H50.5455V21ZM54.1823 19.04H59.2923V21H51.6623V11.2H54.1823V19.04ZM68.0455 21H60.2755V11.2H68.0455V13.16H62.7955V15.05H66.9255V17.01H62.7955V19.04H68.0455V21ZM77.5623 20.79C75.3783 21.0233 73.3716 21.14 71.5423 21.14C70.6276 21.14 69.9556 20.9253 69.5263 20.496C69.0969 20.0667 68.8823 19.3947 68.8823 18.48V14C68.8823 13.02 69.1016 12.3107 69.5403 11.872C69.9883 11.424 70.7023 11.2 71.6823 11.2H76.7223V13.16H72.2423C71.6823 13.16 71.4023 13.44 71.4023 14V18.48C71.4023 18.6947 71.4629 18.8673 71.5843 18.998C71.7149 19.1193 71.8876 19.18 72.1023 19.18C73.1756 19.18 74.1556 19.1567 75.0423 19.11V17.08H73.2223V15.4H77.5623V20.79ZM78.965 11.2H84.845C85.825 11.2 86.5343 11.424 86.973 11.872C87.421 12.3107 87.645 13.02 87.645 14V15.26C87.645 16.0347 87.5143 16.6367 87.253 17.066C87.001 17.4953 86.595 17.78 86.035 17.92L87.785 21H85.055L83.445 18.06H81.485V21H78.965V11.2ZM85.125 14C85.125 13.44 84.845 13.16 84.285 13.16H81.485V16.1H84.285C84.845 16.1 85.125 15.82 85.125 15.26V14ZM90.7912 21H88.0612L91.7712 11.2H94.5712L98.2812 21H95.5512L94.9212 19.25H91.4212L90.7912 21ZM92.0512 17.43H94.2912L93.1712 14.14L92.0512 17.43ZM107.381 15.54L105.421 19.04H103.461L101.501 15.54V21H98.9806V11.2H101.641L104.441 16.38L107.241 11.2H109.901V21H107.381V15.54Z" fill="white"/>
<path d="M17 28C23.0751 28 28 23.0751 28 17C28 10.9249 23.0751 6 17 6C10.9249 6 6 10.9249 6 17C6 23.0751 10.9249 28 17 28Z" fill="url(#paint0_linear_17_194)"/>
<path d="M13.446 17.8041L14.7511 21.4163C14.7511 21.4163 14.9142 21.7543 15.0889 21.7543C15.2637 21.7543 17.8623 19.0509 17.8623 19.0509L20.7521 13.4693L13.4926 16.8717L13.446 17.8041Z" fill="#C8DAEA"/>
<path d="M15.1764 18.7305L14.9259 21.393C14.9259 21.393 14.821 22.2089 15.6366 21.393C16.4523 20.5772 17.233 19.9481 17.233 19.9481" fill="#A9C6D8"/>
<path d="M13.4696 17.933L10.785 17.0583C10.785 17.0583 10.4642 16.9281 10.5675 16.633C10.5887 16.5721 10.6316 16.5203 10.76 16.4313C11.3548 16.0167 21.7697 12.2733 21.7697 12.2733C21.7697 12.2733 22.0638 12.1742 22.2372 12.2401C22.2801 12.2534 22.3187 12.2778 22.3491 12.3109C22.3794 12.344 22.4005 12.3846 22.41 12.4285C22.4287 12.506 22.4366 12.5858 22.4333 12.6654C22.4324 12.7344 22.4241 12.7983 22.4178 12.8985C22.3543 13.9219 20.4561 21.5603 20.4561 21.5603C20.4561 21.5603 20.3425 22.0073 19.9356 22.0226C19.8356 22.0258 19.736 22.0089 19.6427 21.9728C19.5494 21.9367 19.4643 21.8822 19.3925 21.8125C18.594 21.1256 15.8341 19.2709 15.2242 18.8629C15.2105 18.8536 15.1989 18.8414 15.1903 18.8271C15.1816 18.8129 15.1761 18.797 15.1742 18.7804C15.1657 18.7374 15.2124 18.6842 15.2124 18.6842C15.2124 18.6842 20.0181 14.4125 20.146 13.9641C20.1559 13.9293 20.1185 13.9122 20.0683 13.9274C19.7491 14.0448 14.2159 17.5391 13.6052 17.9247C13.5613 17.938 13.5148 17.9409 13.4696 17.933V17.933Z" fill="white"/>
<defs>
<linearGradient id="paint0_linear_17_194" x1="17" y1="28" x2="17" y2="6" gradientUnits="userSpaceOnUse">
<stop stop-color="#1D93D2"/>
<stop offset="1" stop-color="#38B0E3"/>
</linearGradient>
</defs>
</svg>
