<svg width="153" height="34" viewBox="0 0 153 34" fill="none" xmlns="http://www.w3.org/2000/svg">
<rect width="152.113" height="33.9983" rx="10" fill="black"/>
<path d="M9.19485 23.3108C9.06529 23.4215 8.90757 23.4941 8.73922 23.5205C8.57087 23.5469 8.39848 23.5262 8.24123 23.4605L6.56664 22.7579C6.3996 22.6883 6.25679 22.5709 6.15602 22.4206C6.05524 22.2703 6.00098 22.0936 6 21.9126V12.0862C6.00098 11.9052 6.05524 11.7285 6.15602 11.5782C6.25679 11.4278 6.3996 11.3105 6.56664 11.2408L8.24123 10.5498C8.39848 10.4841 8.57087 10.4634 8.73922 10.4898C8.90757 10.5162 9.06529 10.5888 9.19485 10.6995L9.57031 11.0105C9.49417 10.9558 9.40439 10.9231 9.31087 10.9162C9.21736 10.9092 9.12374 10.9282 9.04035 10.9711C8.95696 11.014 8.88703 11.0791 8.83829 11.1592C8.78954 11.2393 8.76387 11.3313 8.76411 11.4251V22.5737C8.76387 22.6674 8.78954 22.7595 8.83829 22.8396C8.88703 22.9197 8.95696 22.9848 9.04035 23.0277C9.12374 23.0705 9.21736 23.0896 9.31087 23.0826C9.40439 23.0757 9.49417 23.043 9.57031 22.9883L9.19485 23.3108Z" fill="#52218A"/>
<path d="M6.56664 22.7579C6.3996 22.6883 6.25679 22.5709 6.15602 22.4206C6.05524 22.2703 6.00098 22.0936 6 21.9126V21.8366C6.00114 21.9429 6.03412 22.0465 6.09469 22.1339C6.15525 22.2213 6.24063 22.2886 6.3398 22.327C6.43898 22.3655 6.54739 22.3733 6.65105 22.3495C6.75471 22.3257 6.84887 22.2714 6.92137 22.1936L21.2026 6.40363C21.4048 6.20239 21.6644 6.06868 21.9457 6.02084C22.2269 5.973 22.5161 6.01338 22.7735 6.13644L27.3297 8.32929C27.5644 8.44213 27.7624 8.61898 27.901 8.83945C28.0395 9.05992 28.113 9.31505 28.1129 9.57545V9.62843C28.1127 9.46323 28.0657 9.30147 27.9773 9.16192C27.8889 9.02238 27.7627 8.91079 27.6134 8.84012C27.4641 8.76944 27.2978 8.74258 27.1338 8.76265C26.9698 8.78273 26.8149 8.84891 26.687 8.95352L9.57031 22.9883L9.19485 23.3108C9.06529 23.4215 8.90757 23.4941 8.73922 23.5205C8.57087 23.5469 8.39848 23.5262 8.24123 23.4605L6.56664 22.7579Z" fill="#6C33AF"/>
<path d="M6.56664 11.2408C6.3996 11.3105 6.25679 11.4278 6.15602 11.5782C6.05524 11.7285 6.00098 11.9052 6 12.0862V12.1622C6.00114 12.0558 6.03412 11.9523 6.09469 11.8649C6.15525 11.7774 6.24063 11.7102 6.3398 11.6717C6.43898 11.6333 6.54739 11.6255 6.65105 11.6493C6.75471 11.673 6.84887 11.7273 6.92137 11.8052L21.2026 27.5951C21.4048 27.7964 21.6644 27.9301 21.9457 27.9779C22.2269 28.0258 22.5161 27.9854 22.7735 27.8623L27.3297 25.6695C27.5644 25.5566 27.7624 25.3798 27.901 25.1593C28.0395 24.9388 28.113 24.6837 28.1129 24.4233V24.3703C28.1127 24.5355 28.0657 24.6973 27.9773 24.8368C27.8889 24.9764 27.7627 25.088 27.6134 25.1586C27.4641 25.2293 27.2978 25.2562 27.1338 25.2361C26.9698 25.216 26.8149 25.1499 26.687 25.0452L9.57031 11.0105L9.19485 10.688C9.06414 10.5792 8.90586 10.5087 8.73755 10.4843C8.56923 10.4599 8.39745 10.4826 8.24123 10.5498L6.56664 11.2408Z" fill="#854CC7"/>
<path d="M22.7735 27.8623C22.5161 27.9854 22.2269 28.0258 21.9457 27.9779C21.6644 27.9301 21.4048 27.7964 21.2026 27.5951C21.3161 27.7078 21.4604 27.7844 21.6174 27.8153C21.7743 27.8462 21.9369 27.8299 22.0846 27.7686C22.2324 27.7073 22.3587 27.6037 22.4476 27.4707C22.5366 27.3378 22.5843 27.1815 22.5846 27.0216V6.98179C22.5852 6.82144 22.5382 6.66453 22.4496 6.5309C22.3609 6.39727 22.2347 6.29291 22.0868 6.23103C21.9388 6.16915 21.7759 6.15252 21.6185 6.18324C21.4611 6.21396 21.3164 6.29066 21.2026 6.40363C21.4048 6.20239 21.6644 6.06868 21.9457 6.02084C22.2269 5.973 22.5161 6.01338 22.7735 6.13644L27.3297 8.32699C27.5644 8.43983 27.7624 8.61667 27.901 8.83714C28.0395 9.05762 28.113 9.31275 28.1129 9.57314V24.4256C28.113 24.686 28.0395 24.9411 27.901 25.1616C27.7624 25.3821 27.5644 25.5589 27.3297 25.6718L22.7735 27.8623Z" fill="#B179F1"/>
<g opacity="0.25">
<path opacity="0.25" fill-rule="evenodd" clip-rule="evenodd" d="M21.8683 27.9637C22.1728 28.0332 22.4919 27.9974 22.7735 27.8623L27.3297 25.6718C27.5644 25.5589 27.7624 25.3821 27.901 25.1616C28.0395 24.9411 28.113 24.686 28.1129 24.4256V9.57315C28.113 9.31275 28.0395 9.05762 27.901 8.83715C27.7624 8.61667 27.5644 8.43983 27.3297 8.32699L22.7735 6.13644C22.4512 5.98148 22.0813 5.95753 21.7416 6.06964C21.5385 6.13769 21.354 6.25204 21.2026 6.40364L13.8593 14.5255L9.57031 11.0105L9.19485 10.688C9.08193 10.5915 8.94734 10.5236 8.80254 10.4904C8.65775 10.4571 8.50706 10.4593 8.36331 10.4968C8.32122 10.5061 8.28028 10.52 8.24123 10.5383L6.56664 11.2408C6.40991 11.3055 6.27407 11.4123 6.17409 11.5492C6.07411 11.6862 6.01387 11.8481 6 12.0171C6 12.0401 6 12.0631 6 12.0862V21.9126C6 21.9356 6 21.9587 6 21.9817C6.01387 22.1507 6.07411 22.3126 6.17409 22.4495C6.27407 22.5865 6.40991 22.6932 6.56664 22.7579L8.24123 23.449C8.28028 23.4672 8.32122 23.4811 8.36331 23.4904C8.50706 23.528 8.65775 23.5302 8.80254 23.4969C8.94734 23.4636 9.08193 23.3958 9.19485 23.2992L9.57031 22.9883L13.8593 19.4733L21.2026 27.5951C21.3856 27.7778 21.6163 27.9055 21.8683 27.9637ZM22.5847 12.3188L16.8745 16.9994L22.5847 21.6799V12.3188ZM8.76411 13.8368L11.6227 16.9994L8.76411 20.162V13.8368Z" fill="url(#paint0_linear_14_126)"/>
</g>
<path d="M38.4735 19.06L40.8535 12.2H43.5835L39.8735 22H37.0735L33.3635 12.2H36.0935L38.4735 19.06ZM48.9029 22H43.8629V20.04H45.1229V14.16H43.8629V12.2H48.9029V14.16H47.6429V20.04H48.9029V22ZM49.8679 19.97C52.4252 20.11 54.1565 20.18 55.0619 20.18C55.2765 20.18 55.4445 20.1193 55.5659 19.998C55.6965 19.8673 55.7619 19.6947 55.7619 19.48V18.22H52.5419C51.5619 18.22 50.8479 18.0007 50.3999 17.562C49.9612 17.114 49.7419 16.4 49.7419 15.42V15C49.7419 14.02 49.9612 13.3107 50.3999 12.872C50.8479 12.424 51.5619 12.2 52.5419 12.2H57.4559V14.16H53.1019C52.5419 14.16 52.2619 14.44 52.2619 15V15.28C52.2619 15.84 52.5419 16.12 53.1019 16.12H55.6219C56.5365 16.12 57.2085 16.3347 57.6379 16.764C58.0672 17.1933 58.2819 17.8653 58.2819 18.78V19.48C58.2819 20.3947 58.0672 21.0667 57.6379 21.496C57.2085 21.9253 56.5365 22.14 55.6219 22.14C55.1459 22.14 54.6419 22.1307 54.1099 22.112L52.8219 22.056C51.8699 22.0093 50.8852 21.944 49.8679 21.86V19.97ZM65.8408 12.2H68.3608V19.34C68.3608 20.32 68.1368 21.034 67.6888 21.482C67.2501 21.9207 66.5408 22.14 65.5608 22.14H62.3408C61.3608 22.14 60.6468 21.9207 60.1988 21.482C59.7601 21.034 59.5408 20.32 59.5408 19.34V12.2H62.0608V19.34C62.0608 19.9 62.3408 20.18 62.9008 20.18H65.0008C65.5608 20.18 65.8408 19.9 65.8408 19.34V12.2ZM71.5173 22H68.7873L72.4973 12.2H75.2973L79.0073 22H76.2773L75.6473 20.25H72.1473L71.5173 22ZM72.7773 18.43H75.0173L73.8973 15.14L72.7773 18.43ZM82.2268 20.04H87.3368V22H79.7068V12.2H82.2268V20.04ZM92.2233 19.97C94.7807 20.11 96.512 20.18 97.4173 20.18C97.632 20.18 97.8 20.1193 97.9213 19.998C98.052 19.8673 98.1173 19.6947 98.1173 19.48V18.22H94.8973C93.9173 18.22 93.2033 18.0007 92.7553 17.562C92.3167 17.114 92.0973 16.4 92.0973 15.42V15C92.0973 14.02 92.3167 13.3107 92.7553 12.872C93.2033 12.424 93.9173 12.2 94.8973 12.2H99.8113V14.16H95.4573C94.8973 14.16 94.6173 14.44 94.6173 15V15.28C94.6173 15.84 94.8973 16.12 95.4573 16.12H97.9773C98.892 16.12 99.564 16.3347 99.9933 16.764C100.423 17.1933 100.637 17.8653 100.637 18.78V19.48C100.637 20.3947 100.423 21.0667 99.9933 21.496C99.564 21.9253 98.892 22.14 97.9773 22.14C97.5013 22.14 96.9973 22.1307 96.4653 22.112L95.1773 22.056C94.2253 22.0093 93.2407 21.944 92.2233 21.86V19.97ZM105.959 22H103.439V14.16H100.499V12.2H108.899V14.16H105.959V22ZM116.181 12.2H118.701V19.34C118.701 20.32 118.477 21.034 118.029 21.482C117.59 21.9207 116.881 22.14 115.901 22.14H112.681C111.701 22.14 110.987 21.9207 110.539 21.482C110.1 21.034 109.881 20.32 109.881 19.34V12.2H112.401V19.34C112.401 19.9 112.681 20.18 113.241 20.18H115.341C115.901 20.18 116.181 19.9 116.181 19.34V12.2ZM125.841 12.2C126.895 12.2 127.693 12.4753 128.235 13.026C128.785 13.5673 129.061 14.3653 129.061 15.42V18.78C129.061 19.8347 128.785 20.6373 128.235 21.188C127.693 21.7293 126.895 22 125.841 22H120.381V12.2H125.841ZM126.541 15.42C126.541 14.58 126.121 14.16 125.281 14.16H122.901V20.04H125.281C126.121 20.04 126.541 19.62 126.541 18.78V15.42ZM135.077 22H130.037V20.04H131.297V14.16H130.037V12.2H135.077V14.16H133.817V20.04H135.077V22ZM142.636 14.86C142.636 14.3 142.356 14.02 141.796 14.02H139.416C138.856 14.02 138.576 14.3 138.576 14.86V19.34C138.576 19.9 138.856 20.18 139.416 20.18H141.796C142.356 20.18 142.636 19.9 142.636 19.34V14.86ZM145.156 19.34C145.156 20.32 144.932 21.034 144.484 21.482C144.045 21.9207 143.336 22.14 142.356 22.14H138.856C137.876 22.14 137.162 21.9207 136.714 21.482C136.275 21.034 136.056 20.32 136.056 19.34V14.86C136.056 13.88 136.275 13.1707 136.714 12.732C137.162 12.284 137.876 12.06 138.856 12.06H142.356C143.336 12.06 144.045 12.284 144.484 12.732C144.932 13.1707 145.156 13.88 145.156 14.86V19.34Z" fill="white"/>
<defs>
<linearGradient id="paint0_linear_14_126" x1="17.0564" y1="6.00054" x2="17.0564" y2="27.9982" gradientUnits="userSpaceOnUse">
<stop stop-color="white"/>
<stop offset="1" stop-color="white" stop-opacity="0"/>
</linearGradient>
</defs>
</svg>
