<svg width="152" height="38" viewBox="0 0 152 38" fill="none" xmlns="http://www.w3.org/2000/svg">
<g filter="url(#filter0_i_24_285)">
<rect width="151.551" height="38" rx="10" fill="#4F5F6C"/>
<path d="M34.4043 21.97C36.9616 22.11 38.6929 22.18 39.5983 22.18C39.8129 22.18 39.9809 22.1193 40.1023 21.998C40.2329 21.8673 40.2983 21.6947 40.2983 21.48V20.22H37.0783C36.0983 20.22 35.3843 20.0007 34.9363 19.562C34.4976 19.114 34.2783 18.4 34.2783 17.42V17C34.2783 16.02 34.4976 15.3107 34.9363 14.872C35.3843 14.424 36.0983 14.2 37.0783 14.2H41.9923V16.16H37.6383C37.0783 16.16 36.7983 16.44 36.7983 17V17.28C36.7983 17.84 37.0783 18.12 37.6383 18.12H40.1583C41.0729 18.12 41.7449 18.3347 42.1743 18.764C42.6036 19.1933 42.8183 19.8653 42.8183 20.78V21.48C42.8183 22.3947 42.6036 23.0667 42.1743 23.496C41.7449 23.9253 41.0729 24.14 40.1583 24.14C39.6823 24.14 39.1783 24.1307 38.6463 24.112L37.3583 24.056C36.4063 24.0093 35.4216 23.944 34.4043 23.86V21.97ZM52.4772 18.54L50.5172 22.04H48.5572L46.5972 18.54V24H44.0772V14.2H46.7372L49.5372 19.38L52.3372 14.2H54.9972V24H52.4772V18.54ZM58.4327 24H55.7027L59.4127 14.2H62.2127L65.9227 24H63.1927L62.5627 22.25H59.0627L58.4327 24ZM59.6927 20.43H61.9327L60.8127 17.14L59.6927 20.43ZM66.6221 14.2H72.5021C73.4821 14.2 74.1914 14.424 74.6301 14.872C75.0781 15.3107 75.3021 16.02 75.3021 17V18.26C75.3021 19.0347 75.1714 19.6367 74.9101 20.066C74.6581 20.4953 74.2521 20.78 73.6921 20.92L75.4421 24H72.7121L71.1021 21.06H69.1421V24H66.6221V14.2ZM72.7821 17C72.7821 16.44 72.5021 16.16 71.9421 16.16H69.1421V19.1H71.9421C72.5021 19.1 72.7821 18.82 72.7821 18.26V17ZM81.4583 24H78.9383V16.16H75.9983V14.2H84.3983V16.16H81.4583V24ZM85.3799 14.2H91.2599C92.2399 14.2 92.9493 14.424 93.3879 14.872C93.8359 15.3107 94.0599 16.02 94.0599 17V18.26C94.0599 19.0347 93.9293 19.6367 93.6679 20.066C93.4159 20.4953 93.0099 20.78 92.4499 20.92L94.1999 24H91.4699L89.8599 21.06H87.8999V24H85.3799V14.2ZM91.5399 17C91.5399 16.44 91.2599 16.16 90.6999 16.16H87.8999V19.1H90.6999C91.2599 19.1 91.5399 18.82 91.5399 18.26V17ZM97.2061 24H94.4761L98.1861 14.2H100.986L104.696 24H101.966L101.336 22.25H97.8361L97.2061 24ZM98.4661 20.43H100.706L99.5861 17.14L98.4661 20.43ZM112.682 23.86C110.601 24.0467 108.874 24.14 107.502 24.14C106.587 24.14 105.915 23.9253 105.486 23.496C105.057 23.0667 104.842 22.3947 104.842 21.48V17C104.842 16.02 105.061 15.3107 105.5 14.872C105.948 14.424 106.662 14.2 107.642 14.2H112.682V16.16H108.202C107.642 16.16 107.362 16.44 107.362 17V21.48C107.362 21.6947 107.423 21.8673 107.544 21.998C107.675 22.1193 107.838 22.18 108.034 22.18C108.23 22.18 108.445 22.18 108.678 22.18C108.911 22.1707 109.154 22.1613 109.406 22.152C109.658 22.1427 109.91 22.1333 110.162 22.124C110.423 22.1147 110.755 22.096 111.156 22.068C111.567 22.04 112.075 22.0073 112.682 21.97V23.86ZM116.324 24H113.804V14.2H116.324V18.05H117.584L119.768 14.2H122.428L119.684 19.03L122.414 24H119.754L117.584 20.01H116.324V24ZM132.082 24.14C130.523 24.14 128.797 24.0467 126.902 23.86V21.97C128.965 22.11 130.505 22.18 131.522 22.18C131.737 22.18 131.905 22.1193 132.026 21.998C132.157 21.8673 132.222 21.6947 132.222 21.48V20.92C132.222 20.36 131.942 20.08 131.382 20.08H128.442V18.12H131.102C131.662 18.12 131.942 17.84 131.942 17.28V17C131.942 16.44 131.662 16.16 131.102 16.16H127.042V14.2H131.802C132.717 14.2 133.389 14.41 133.818 14.83C134.247 15.2407 134.462 15.8707 134.462 16.72C134.462 17.28 134.331 17.7373 134.07 18.092C133.818 18.4373 133.482 18.68 133.062 18.82C133.818 19.0253 134.331 19.5293 134.602 20.332C134.695 20.6213 134.742 20.9573 134.742 21.34V21.48C134.742 22.3947 134.527 23.0667 134.098 23.496C133.669 23.9253 132.997 24.14 132.082 24.14ZM141.467 14.2C142.522 14.2 143.32 14.4753 143.861 15.026C144.412 15.5673 144.687 16.3653 144.687 17.42V20.78C144.687 21.8347 144.412 22.6373 143.861 23.188C143.32 23.7293 142.522 24 141.467 24H136.007V14.2H141.467ZM142.167 17.42C142.167 16.58 141.747 16.16 140.907 16.16H138.527V22.04H140.907C141.747 22.04 142.167 21.62 142.167 20.78V17.42Z" fill="white"/>
<path d="M10.4887 25.8H11.5687V28.86C11.5687 29.28 11.4727 29.586 11.2807 29.778C11.0927 29.966 10.7887 30.06 10.3687 30.06H8.98871C8.56871 30.06 8.26271 29.966 8.07071 29.778C7.88271 29.586 7.78871 29.28 7.78871 28.86V25.8H8.86871V28.86C8.86871 29.1 8.98871 29.22 9.22871 29.22H10.1287C10.3687 29.22 10.4887 29.1 10.4887 28.86V25.8ZM15.9487 30H14.8087L13.3687 27.48V30H12.2887V25.8H13.4287L14.8687 28.32V25.8H15.9487V30ZM18.6515 30H16.4915V29.16H17.0315V26.64H16.4915V25.8H18.6515V26.64H18.1115V29.16H18.6515V30ZM21.2311 30H20.1511V26.64H18.8911V25.8H22.4911V26.64H21.2311V30ZM22.4318 25.8H23.5718L24.5618 27.84L25.5518 25.8H26.6918L25.1018 28.89V30H24.0218V28.89L22.4318 25.8Z" fill="white"/>
<rect x="12" y="9" width="9" height="9" fill="white"/>
<path fill-rule="evenodd" clip-rule="evenodd" d="M12.7439 6.01917C10.532 6.13061 9.06193 6.25055 8.59865 6.35735C7.76205 6.55016 7.03508 7.06009 6.63865 7.73241C6.19874 8.47811 5.99863 10.3187 6.00001 13.606C6.00138 16.8362 6.188 18.4732 6.64355 19.2506C7.10141 20.0317 8.06346 20.5885 9.22114 20.7423C11.8144 21.0867 22.552 21.0856 24.5149 20.7408C26.1565 20.4524 27.0357 19.7696 27.3495 18.5393C27.8353 16.6356 27.8802 11.1698 27.429 8.85461C27.264 8.00839 26.9958 7.46958 26.5297 7.04849C25.8712 6.45358 25.3052 6.29953 23.1831 6.13783C22.0489 6.05139 13.9346 5.9592 12.7439 6.01917ZM17.5878 11.8107C19.0113 12.6849 20.1756 13.4389 20.1752 13.4861C20.1749 13.5334 19.5853 13.9361 18.865 14.3811C16.1754 16.0425 14.9231 16.794 14.8442 16.794C14.7946 16.794 14.763 15.5045 14.763 13.4798C14.763 10.7075 14.7823 10.1701 14.8815 10.1934C14.9466 10.2087 16.1645 10.9364 17.5878 11.8107Z" fill="#FF0000"/>
</g>
<defs>
<filter id="filter0_i_24_285" x="0" y="-3" width="151.551" height="41" filterUnits="userSpaceOnUse" color-interpolation-filters="sRGB">
<feFlood flood-opacity="0" result="BackgroundImageFix"/>
<feBlend mode="normal" in="SourceGraphic" in2="BackgroundImageFix" result="shape"/>
<feColorMatrix in="SourceAlpha" type="matrix" values="0 0 0 0 0 0 0 0 0 0 0 0 0 0 0 0 0 0 127 0" result="hardAlpha"/>
<feOffset dy="-3"/>
<feGaussianBlur stdDeviation="2"/>
<feComposite in2="hardAlpha" operator="arithmetic" k2="-1" k3="1"/>
<feColorMatrix type="matrix" values="0 0 0 0 0 0 0 0 0 0 0 0 0 0 0 0 0 0 0.25 0"/>
<feBlend mode="normal" in2="shape" result="effect1_innerShadow_24_285"/>
</filter>
</defs>
</svg>
